{"glyphs":{":":{"x_min":0,"x_max":319,"ha":319,"o":"m 80 55 b 80 55 78 34 105 34 b 145 34 177 76 177 103 b 177 112 174 127 160 127 b 150 127 152 141 136 141 b 97 141 64 104 64 76 b 64 52 80 55 80 55 z m 209 316 b 209 316 207 295 234 295 b 274 295 306 337 306 364 b 306 373 303 388 289 388 b 279 388 281 402 265 402 b 226 402 193 365 193 337 b 193 313 209 316 209 316 z"},"$":{"x_min":0,"x_max":709,"ha":709,"o":"m 681 814 b 681 840 663 868 628 868 b 582 868 600 887 569 892 b 568 925 546 943 517 943 b 509 968 484 964 484 959 b 484 952 504 956 504 930 b 504 919 501 903 495 885 b 332 846 112 656 112 530 b 112 462 153 433 190 430 b 190 390 212 375 239 365 b 170 234 110 116 92 57 b 78 59 75 79 75 88 b 75 120 141 195 141 235 b 141 290 107 286 107 286 b 107 286 107 329 57 329 b 28 329 15 301 27 301 b 44 301 68 301 68 265 b 68 230 -2 158 -2 111 b -2 69 21 43 55 43 b 74 43 82 39 88 33 b 88 32 88 31 88 31 b 88 -15 132 -15 132 -15 b 132 -15 132 -45 166 -45 b 186 -45 195 -26 187 -26 b 175 -26 159 -26 159 -1 b 159 2 159 4 160 8 b 352 21 425 173 425 237 b 425 324 360 311 360 311 b 360 342 349 362 333 377 b 424 550 524 736 557 836 b 570 840 580 842 587 842 b 600 842 602 833 602 822 b 602 790 543 720 543 680 b 543 629 577 625 577 625 b 577 625 577 582 626 582 b 656 582 669 610 657 610 b 639 610 615 610 615 645 b 615 690 681 766 681 813 l 681 814 z m 347 247 b 347 189 279 105 180 72 b 207 137 256 231 310 333 b 332 319 347 294 347 247 z m 266 414 b 230 429 199 444 199 486 b 199 612 344 728 459 792 b 413 687 337 546 266 414 z"},"?":{"x_min":0,"x_max":516,"ha":516,"o":"m 163 237 b 163 374 599 661 599 828 b 599 910 535 908 535 908 b 535 908 534 961 466 961 b 300 961 31 779 31 635 b 31 544 99 543 99 543 b 99 485 149 490 149 504 b 149 512 129 512 129 577 b 129 729 333 925 464 925 b 499 925 518 901 518 859 b 518 680 81 446 81 272 b 81 219 117 208 117 208 b 117 208 117 154 180 154 b 216 154 233 188 218 188 b 196 188 163 191 163 237 z m 92 -88 b 150 -88 170 117 134 117 b 84 117 1 31 1 -18 b 1 -60 35 -88 92 -88 z"},"<":{"x_min":0,"x_max":305,"ha":305,"o":"m 411 589 b 417 633 375 648 370 640 b 364 629 399 620 377 577 b 330 490 51 394 15 325 b -7 282 16 256 16 256 b 16 256 11 244 11 230 b 11 230 11 230 11 229 b 11 179 170 55 236 55 b 288 55 291 115 288 115 b 224 115 60 201 60 232 b 60 314 380 411 421 504 b 449 558 423 580 411 589 z"},"'":{"x_min":0,"x_max":261,"ha":261,"o":"m 154 836 b 154 836 143 875 108 875 b 88 875 79 856 87 856 b 99 856 123 850 123 808 b 123 775 77 717 77 679 b 77 644 102 618 132 618 b 156 618 144 625 144 639 b 144 673 195 739 195 775 b 195 835 154 836 154 836 z"},"=":{"x_min":0,"x_max":380,"ha":380,"o":"m 30 179 b 30 179 39 160 48 164 b 107 191 308 147 375 178 b 400 189 406 222 397 243 b 397 243 392 253 382 248 b 297 210 103 261 49 236 b 15 221 30 179 30 179 z m 96 343 b 96 343 105 324 114 328 b 173 355 374 311 441 342 b 466 353 472 386 463 407 b 463 407 458 417 448 412 b 363 374 169 425 115 400 b 81 385 96 343 96 343 z"},"a":{"x_min":0,"x_max":627,"ha":627,"o":"m 358 613 b 359 613 360 613 361 613 b 362 613 363 613 364 613 z m 627 330 b 576 246 432 2 370 2 b 357 2 338 14 338 57 b 338 174 464 320 464 382 b 464 448 429 456 412 456 b 397 502 348 494 348 485 b 348 473 385 480 385 429 b 385 384 339 310 300 234 b 268 186 152 16 89 16 b -110 16 251 549 417 549 b 459 549 446 521 473 521 b 497 521 476 579 446 579 b 400 579 405 612 361 613 b 189 609 -70 279 -70 180 b -70 99 -11 82 -11 82 b -11 82 -1 -28 85 -28 b 134 -28 200 25 249 71 b 253 19 294 8 294 8 b 294 8 291 -46 354 -46 b 456 -46 608 226 661 316 b 676 340 644 355 627 330 z"},"L":{"x_min":0,"x_max":584,"ha":584,"o":"m 904 -66 b 894 -66 881 -157 730 -157 b 529 -157 420 -51 277 -10 b 273 -4 271 6 271 18 b 271 143 623 659 623 810 b 623 876 578 897 561 897 b 561 897 560 949 465 949 b 236 949 -94 651 -94 469 b -94 395 -41 371 -41 371 b -41 287 27 294 27 314 b 27 326 0 326 0 420 b 0 640 282 922 463 922 b 499 922 535 911 535 870 b 535 709 176 192 176 66 b 176 40 184 24 193 14 b 173 17 152 18 131 18 b -16 18 0 -86 0 -86 b 0 -86 -34 -98 -34 -123 b -34 -148 -19 -151 -11 -151 b -3 -151 13 -48 142 -48 b 321 -48 535 -258 715 -258 b 894 -258 897 -130 897 -130 b 897 -130 927 -118 927 -91 b 927 -73 914 -66 904 -66 z"},"3":{"x_min":0,"x_max":640,"ha":640,"o":"m 638 752 b 638 829 592 842 571 844 b 572 859 569 900 497 900 b 348 900 157 797 157 704 b 157 628 214 622 214 622 b 214 556 277 561 277 577 b 277 587 252 587 252 661 b 252 752 416 859 495 859 b 502 859 508 859 514 857 b 534 849 545 828 545 796 b 545 661 409 557 301 507 b 300 507 299 507 298 506 b 281 495 292 459 312 464 b 373 479 369 478 398 478 b 448 478 470 445 471 391 b 471 222 277 53 124 53 b 80 53 56 61 56 99 b 56 120 0 141 0 99 b 0 58 19 28 51 28 b 83 28 74 2 115 2 b 295 2 569 156 569 346 b 569 457 497 450 497 450 b 497 450 508 509 459 530 b 575 603 638 655 638 752 z"},";":{"x_min":0,"x_max":319,"ha":319,"o":"m 94 265 b 94 265 92 244 119 244 b 159 244 191 286 191 313 b 191 322 188 337 174 337 b 164 337 166 351 150 351 b 111 351 78 314 78 286 b 78 262 94 265 94 265 z m 14 151 b 14 141 43 151 43 89 b 43 29 5 -27 -69 -27 b -69 -34 -67 -57 -30 -57 b 52 -57 109 19 109 82 b 109 127 73 128 73 128 l 73 128 b 62 168 14 158 14 151 z"},"J":{"x_min":0,"x_max":591,"ha":591,"o":"m 561 872 l 561 872 b 561 872 559 948 465 948 b 236 948 -116 652 -116 444 b -116 358 -42 346 -42 346 b -42 262 27 269 27 289 b 27 301 0 301 0 395 b 0 615 281 897 463 897 b 497 897 530 888 535 853 b 535 850 535 848 535 845 b 535 683 400 382 222 117 b -61 -46 -411 -279 -411 -368 b -411 -407 -386 -411 -377 -411 b -376 -426 -360 -459 -329 -459 b 24 -459 626 366 626 777 b 626 842 577 872 561 872 z m -370 -398 b -374 -398 -380 -396 -380 -387 b -380 -318 -140 -156 164 34 b -10 -206 -213 -398 -370 -398 z"},"V":{"x_min":0,"x_max":755,"ha":755,"o":"m 34 -84 b 230 -84 759 472 759 762 b 759 889 661 887 661 887 b 661 913 641 950 615 950 b 588 950 582 934 582 925 b 582 917 641 903 641 748 b 641 509 152 -52 39 -52 b 16 -52 0 -31 0 3 b 0 113 234 369 234 529 b 234 595 191 613 174 613 b 161 659 113 651 113 642 b 113 630 149 637 149 586 b 149 449 -76 173 -76 52 b -76 -2 -41 -13 -41 -13 b -41 -13 -47 -84 34 -84 z"},"\"":{"x_min":0,"x_max":327,"ha":327,"o":"m 248 843 b 248 843 237 882 202 882 b 182 882 173 863 181 863 b 193 863 217 857 217 815 b 217 782 171 724 171 686 b 171 651 196 625 226 625 b 250 625 238 632 238 646 b 238 680 289 746 289 782 b 289 842 248 843 248 843 z m 101 853 b 101 853 101 883 66 883 b 46 883 37 864 45 864 b 57 864 74 864 74 839 b 74 773 32 727 32 698 b 32 663 55 635 85 635 b 115 635 102 648 102 665 b 102 714 146 750 146 806 b 146 853 101 853 101 853 z"},"7":{"x_min":0,"x_max":617,"ha":617,"o":"m 137 37 b 115 37 85 37 85 82 b 85 207 624 648 624 799 b 624 865 589 873 572 873 b 557 919 508 911 508 902 b 508 893 527 894 538 877 b 515 857 457 824 331 824 b 128 824 121 907 111 907 b 96 907 58 862 127 839 b 127 839 130 751 260 751 b 377 751 494 811 545 840 b 531 674 0 245 0 121 b 0 67 36 56 36 56 b 36 56 36 2 99 2 b 135 2 152 37 137 37 z"},"S":{"x_min":0,"x_max":793,"ha":793,"o":"m 1029 840 b 1029 891 995 894 995 894 b 995 894 1013 949 926 949 b 771 949 653 743 540 516 b 419 472 289 443 172 443 b 157 443 144 444 131 445 b 198 544 285 617 377 617 b 438 617 415 579 454 579 b 488 579 460 649 418 649 b 351 649 390 682 323 682 b 223 682 115 588 31 471 b -66 518 -68 609 -75 609 b -148 609 -122 503 -71 503 b -71 503 -99 421 -30 373 b -80 280 -112 186 -112 118 b -112 -25 -53 -43 -10 -48 b -10 -48 -18 -140 79 -140 b 357 -140 520 201 653 491 b 865 600 1029 744 1029 840 z m 90 -77 b -40 -77 -21 147 72 341 b 85 340 99 339 114 339 b 232 339 365 371 493 419 b 370 168 249 -77 90 -77 z m 695 583 b 776 757 848 893 933 893 b 967 893 979 881 979 843 b 979 769 859 666 695 583 z"},"}":{"x_min":0,"x_max":612,"ha":612,"o":"m 384 256 b 376 256 362 256 355 260 b 353 261 351 262 349 262 b 343 268 339 279 340 299 b 345 369 579 715 585 793 b 590 852 547 861 532 861 b 523 902 478 896 477 886 b 476 876 512 883 508 836 b 501 740 260 399 255 334 b 253 306 271 290 281 283 b 268 281 252 277 233 264 b 172 214 14 -139 -41 -180 b -76 -203 -92 -181 -102 -164 b -108 -154 -127 -185 -110 -211 b -81 -258 -40 -229 -40 -229 b -40 -229 -13 -252 29 -223 b 83 -183 253 184 309 231 b 312 232 313 232 314 233 b 321 228 330 224 345 224 b 353 224 361 227 370 231 b 371 231 371 231 372 232 b 372 232 372 232 372 232 b 387 241 392 256 384 256 z"},"Z":{"x_min":0,"x_max":833,"ha":833,"o":"m 931 698 b 931 753 895 761 895 761 b 895 761 913 834 828 834 b 718 834 613 766 451 766 b 289 766 253 902 253 902 b 253 902 218 912 218 866 b 218 828 253 820 253 820 b 253 820 195 668 459 668 b 625 668 771 741 829 741 b 850 741 868 731 868 701 b 868 625 -20 315 -20 -58 b -20 -58 -50 -70 -50 -96 b -50 -114 -37 -122 -27 -122 b -17 -122 24 -31 174 -31 b 402 -31 440 -86 579 -86 b 726 -86 747 19 747 19 b 747 19 781 30 781 56 b 781 81 766 83 758 83 b 751 83 735 -20 605 -20 b 426 -20 358 72 192 72 b 141 72 101 61 71 45 b 203 339 931 573 931 698 z"},"x":{"x_min":0,"x_max":617,"ha":617,"o":"m 355 -40 b 474 -40 595 206 651 316 b 666 340 633 355 617 330 b 567 232 454 8 371 8 b 301 8 426 582 263 582 b 228 582 216 559 182 559 b 121 559 0 330 0 330 b -10 310 19 294 33 316 b 33 316 157 530 201 530 b 324 530 182 -5 314 -5 b 314 -5 322 -40 355 -40 z m 3 11 b -24 11 -20 -22 6 -22 b 113 -22 527 363 527 513 b 527 561 492 578 474 578 b 460 624 411 616 411 607 b 411 595 448 602 448 551 b 448 398 96 11 3 11 z"},")":{"x_min":0,"x_max":428,"ha":428,"o":"m -99 -82 b -133 -82 -138 -50 -147 -50 b -170 -50 -162 -140 -94 -140 b -74 -140 -58 -128 -58 -128 b -58 -128 -46 -136 -29 -136 b 193 -136 536 477 536 799 b 536 866 496 871 496 871 b 496 871 497 930 427 930 b 387 930 369 892 385 892 b 409 892 453 896 453 837 b 453 467 119 -82 -99 -82 z"},"&":{"x_min":0,"x_max":693,"ha":693,"o":"m 644 794 b 613 794 605 806 593 816 b 599 835 602 851 602 863 b 602 900 578 920 546 920 b 538 947 510 942 510 937 b 510 930 531 934 531 905 b 531 887 524 859 511 824 b 387 798 248 665 248 525 b 248 513 249 501 252 490 b 110 453 0 295 0 160 b 0 51 55 34 88 30 b 88 30 91 17 101 2 b 89 -28 82 -51 82 -65 b 82 -115 130 -115 130 -115 b 130 -115 130 -147 167 -147 b 189 -147 198 -127 190 -127 b 177 -127 159 -127 159 -100 b 159 -86 166 -63 178 -32 b 178 -32 178 -32 178 -32 b 310 -32 510 90 510 222 b 510 299 454 301 454 301 b 454 301 451 333 424 333 b 410 333 404 323 404 320 b 404 316 433 303 433 238 b 433 172 324 6 176 6 b 14 6 112 349 295 423 b 351 380 437 388 438 419 b 439 435 421 462 398 462 b 350 462 364 492 327 498 b 342 671 540 770 612 770 b 643 770 651 748 651 722 b 651 626 557 536 506 536 b 493 536 486 538 481 540 b 477 542 474 541 474 536 b 470 520 467 481 515 481 b 581 481 696 600 696 722 b 696 758 678 794 644 794 z"},"_":{"x_min":0,"x_max":907,"ha":907,"o":"m 579 -18 b 487 -18 149 -11 79 -11 b -23 -11 -21 -91 -21 -91 b -21 -91 -42 -98 -46 -118 b -50 -138 -36 -141 -31 -141 b -28 -142 -15 -78 82 -78 b 171 -78 474 -85 583 -85 b 650 -85 655 -14 655 0 b 655 14 643 19 643 8 b 643 -3 636 -18 579 -18 z"},"v":{"x_min":0,"x_max":494,"ha":494,"o":"m 365 531 b 365 378 95 0 -1 0 b -16 0 -18 24 -18 38 b -18 144 141 366 141 433 b 141 499 106 508 88 508 b 74 554 24 546 24 536 b 24 525 62 532 62 481 b 62 415 -99 179 -99 94 b -99 35 -72 7 -34 -5 b -34 -5 -31 -32 2 -32 b 128 -32 462 317 462 487 b 462 541 409 558 391 558 b 377 604 327 596 327 586 b 327 575 365 582 365 531 z"},"O":{"x_min":0,"x_max":760,"ha":760,"o":"m 662 835 b 647 876 606 903 558 903 b 322 903 55 671 55 449 b 55 441 55 433 56 425 b -44 329 -115 192 -115 87 b -115 7 -59 -31 -22 -35 b -22 -35 -25 -114 85 -114 b 377 -114 753 424 753 727 b 753 823 693 835 662 835 z m 98 -45 b -60 -45 -9 174 101 321 b 123 254 165 193 233 153 b 298 115 341 166 341 166 b 341 166 373 140 397 165 b 415 184 404 198 400 202 b 395 207 330 173 245 259 b 205 306 189 362 186 408 b 221 433 257 449 291 449 b 343 449 326 416 359 416 b 389 416 359 476 324 476 b 267 476 298 504 241 504 b 226 504 211 501 196 497 b 238 658 406 838 574 838 b 934 838 442 -45 98 -45 z"},"(":{"x_min":0,"x_max":428,"ha":428,"o":"m 635 874 b 669 874 674 842 683 842 b 706 842 698 932 630 932 b 610 932 594 920 594 920 b 594 920 582 928 565 928 b 343 928 0 315 0 -7 b 0 -66 40 -79 40 -79 b 40 -79 39 -138 109 -138 b 149 -138 167 -100 151 -100 b 127 -100 93 -100 93 -50 b 93 320 417 874 635 874 z"},"C":{"x_min":0,"x_max":765,"ha":765,"o":"m 524 421 b 613 421 833 671 851 840 b 854 876 834 914 788 914 b 717 914 762 949 690 949 b 589 949 482 885 382 791 b 257 824 122 837 43 773 b -15 726 -2 672 -2 672 b -83 606 -17 573 -7 582 b 4 590 -15 606 50 658 b 126 720 226 735 322 730 b 141 530 0 246 0 107 b 0 21 42 -38 86 -43 b 86 -43 68 -140 173 -140 b 436 -140 797 317 797 317 b 812 340 780 355 765 330 b 727 280 394 -81 193 -81 b -3 -81 186 438 448 712 b 493 703 533 691 565 680 b 506 648 438 584 433 534 b 427 476 468 476 468 476 b 468 476 459 421 524 421 z m 615 663 l 615 664 b 634 665 653 689 630 700 b 597 715 549 736 493 756 b 576 832 662 880 741 880 b 783 880 792 859 790 840 b 780 736 606 498 520 498 b 438 498 578 663 615 663 z"},"W":{"x_min":0,"x_max":1269,"ha":1269,"o":"m 1171 790 b 1171 818 1149 857 1121 857 b 1093 857 1085 840 1085 831 b 1085 822 1149 807 1149 640 b 1149 382 814 -25 719 -25 b 694 -25 677 -3 677 34 b 677 152 909 404 909 576 b 909 647 873 656 855 656 b 840 705 789 697 789 687 b 789 674 828 682 828 627 b 828 627 828 626 828 626 b 828 524 364 -105 290 -105 b 280 -105 269 -95 269 -62 b 288 89 654 557 654 766 b 654 837 618 846 600 846 b 600 846 599 928 497 928 b 250 928 -128 609 -128 385 b -128 293 -48 280 -48 280 b -48 189 25 197 25 219 b 25 232 -4 232 -4 333 b -4 569 299 873 495 873 b 534 873 573 862 573 817 b 573 644 181 130 181 -32 b 181 -89 219 -102 219 -102 b 219 -102 218 -160 283 -160 b 292 -160 299 -158 306 -155 b 390 -121 539 79 650 241 b 618 181 595 127 595 86 b 595 28 632 16 632 16 b 632 16 627 -60 714 -60 b 869 -60 1269 386 1269 655 b 1269 792 1171 790 1171 790 z"},"A":{"x_min":0,"x_max":833,"ha":833,"o":"m 782 -182 b 715 -182 644 -98 644 80 b 644 166 665 257 696 348 b 717 338 730 328 734 319 b 735 316 734 313 733 310 b 728 302 758 283 766 292 b 772 299 773 309 769 321 b 761 344 739 364 708 382 b 791 612 927 837 927 984 b 927 1027 897 1039 880 1039 b 874 1085 825 1077 824 1068 b 822 1056 850 1058 850 1012 b 850 894 674 650 483 449 b 375 463 260 460 185 431 b 156 420 132 404 113 383 b 67 332 85 284 85 284 b 21 213 86 193 94 202 b 102 211 83 223 135 280 b 167 316 207 340 251 357 b 305 378 365 388 425 390 b 277 244 129 133 54 133 b 23 133 26 163 16 163 b -10 163 -6 80 43 80 b 60 80 71 84 79 90 b 79 90 89 82 101 82 b 190 82 361 218 524 387 b 569 383 610 375 644 366 b 594 233 557 97 557 -26 b 557 -237 694 -191 694 -191 b 694 -191 709 -224 747 -224 b 786 -224 795 -182 782 -182 z m 568 434 b 648 521 725 614 787 700 b 746 610 700 509 659 406 b 632 416 601 426 568 434 z"},"f":{"x_min":0,"x_max":290,"ha":290,"o":"m 290 330 b 225 242 175 170 51 170 b 38 170 26 171 16 174 b 160 428 319 703 319 796 b 319 862 284 870 267 870 b 252 916 203 908 203 899 b 203 887 240 894 240 843 b 240 740 104 507 -30 279 b -44 282 -58 279 -71 263 b -87 243 -90 217 -81 192 b -193 2 -290 -173 -290 -250 b -290 -303 -254 -315 -254 -315 b -254 -315 -254 -366 -197 -369 b -197 -369 -197 -369 -197 -369 b -196 -369 -195 -369 -195 -369 b -194 -369 -193 -369 -191 -369 b -184 -369 -178 -367 -174 -365 b -67 -329 -2 -48 10 129 b 15 129 21 128 27 128 b 183 128 261 216 324 317 b 339 341 306 355 290 330 z m -193 -333 b -203 -331 -209 -323 -209 -301 b -209 -239 -130 -87 -34 86 b -55 -104 -139 -326 -193 -333 z"},"Q":{"x_min":0,"x_max":782,"ha":782,"o":"m 759 -249 b 753 -246 726 -287 659 -288 b 448 -288 315 -213 240 -100 b 518 34 805 487 805 761 b 805 864 741 877 708 877 b 692 920 648 949 596 949 b 327 949 149 719 103 471 b -23 376 -118 234 -118 77 b -118 -17 -63 -50 -24 -54 b -24 -54 -26 -138 91 -138 b 114 -138 137 -135 161 -129 b 236 -288 377 -400 596 -400 b 691 -402 727 -309 727 -309 b 727 -309 761 -311 771 -284 b 779 -267 769 -253 759 -249 z m 613 879 b 964 879 561 100 209 -43 b 149 91 154 262 200 419 b 236 447 275 463 312 463 b 367 463 349 428 384 428 b 416 428 384 492 347 492 b 286 492 319 522 258 522 b 250 522 242 521 235 520 b 318 721 464 879 613 879 z m 105 -65 b -59 -65 -25 131 85 287 b 78 171 98 25 134 -63 b 124 -64 114 -65 105 -65 z"},"w":{"x_min":0,"x_max":740,"ha":740,"o":"m 648 506 b 633 552 583 544 583 534 b 583 523 621 530 621 479 b 621 326 346 -2 272 -2 b 257 -2 255 22 255 36 b 255 142 372 271 372 338 b 372 404 337 412 319 412 b 305 458 255 450 255 441 b 255 429 293 436 293 385 b 293 374 290 361 284 347 b 227 257 88 65 29 65 b 14 65 10 77 10 91 b 10 197 140 364 140 431 b 140 497 105 506 88 506 b 73 552 24 544 24 534 b 24 523 61 530 61 479 b 61 413 -71 232 -71 147 b -71 88 -44 60 -6 47 b -6 47 -2 21 30 21 b 64 21 128 84 190 157 b 180 133 174 111 174 92 b 174 33 201 5 239 -7 b 239 -7 243 -34 275 -34 b 381 -34 700 290 700 441 b 700 489 665 506 648 506 z"},"-":{"x_min":0,"x_max":547,"ha":547,"o":"m 383 310 b 291 310 235 317 165 317 b 63 317 65 237 65 237 b 65 237 44 230 40 210 b 36 190 50 187 55 187 b 58 186 71 250 168 250 b 257 250 278 243 387 243 b 454 243 459 314 459 328 b 459 342 447 347 447 336 b 447 325 440 310 383 310 z"},"E":{"x_min":0,"x_max":729,"ha":729,"o":"m 729 330 b 693 282 386 -79 198 -79 b -4 -79 121 357 349 446 b 415 389 518 399 520 439 b 521 459 499 494 471 494 b 409 494 439 522 387 525 b 389 610 423 680 469 737 b 517 727 559 714 592 702 b 560 678 534 637 534 607 b 534 575 558 568 558 568 b 558 568 555 518 614 518 b 696 518 837 696 837 852 b 837 885 815 920 773 920 b 708 920 746 952 681 952 b 593 952 488 894 409 813 b 289 845 158 857 82 795 b 26 749 38 696 38 696 b -40 633 24 600 34 608 b 44 617 26 632 89 683 b 164 745 265 759 360 752 b 321 696 296 634 296 575 b 296 552 299 532 305 515 b 138 467 0 269 0 112 b 0 -28 58 -46 99 -50 b 99 -50 92 -140 187 -140 b 415 -140 760 317 760 317 b 774 340 744 354 729 330 z m 733 889 b 771 889 782 869 782 852 b 782 756 682 589 603 589 b 568 589 602 682 634 689 b 653 689 672 713 649 724 b 616 739 568 760 511 780 b 590 852 685 889 733 889 z"},"s":{"x_min":0,"x_max":423,"ha":423,"o":"m 423 330 b 365 240 278 198 225 160 b 219 297 182 387 182 491 b 182 602 265 630 265 646 b 265 661 191 668 166 603 b 166 603 95 585 80 511 b 66 453 41 392 0 330 b -15 306 10 285 25 307 b 50 343 69 379 84 415 b 100 330 127 247 127 143 b 127 126 125 111 122 96 b 16 41 -61 25 -61 -39 b -61 -68 -34 -72 -18 -88 b -5 -101 -4 -122 22 -122 b 106 -122 218 -33 226 115 b 288 160 388 212 454 316 b 468 339 438 353 423 330 z m 1 -54 b -14 -54 -21 -46 -21 -35 b -21 -9 26 2 105 42 b 74 -26 28 -54 1 -54 z"},">":{"x_min":0,"x_max":412,"ha":412,"o":"m -5 -15 b -11 -59 31 -74 36 -66 b 42 -55 7 -46 29 -3 b 76 84 355 180 391 249 b 413 292 390 318 390 318 b 390 318 395 330 395 344 b 395 344 395 344 395 345 b 395 395 236 519 170 519 b 118 519 115 459 118 459 b 182 459 346 373 346 342 b 346 260 26 163 -15 70 b -43 16 -17 -6 -5 -15 z"},"l":{"x_min":0,"x_max":377,"ha":377,"o":"m 224 782 b 224 663 -133 173 -133 -2 b -133 -61 -102 -89 -64 -101 b -64 -101 -65 -155 -2 -155 b 118 -155 358 226 411 316 b 426 340 393 355 377 330 b 325 246 97 -107 14 -107 b -27 -107 -33 -78 -33 -28 b -33 150 312 595 312 721 b 312 789 268 809 250 809 b 236 855 186 847 186 838 b 186 826 224 834 224 782 z"},"8":{"x_min":0,"x_max":624,"ha":624,"o":"m 488 433 b 488 433 485 475 446 500 b 540 561 632 670 632 762 b 632 838 587 834 587 834 b 587 834 583 900 508 900 b 378 900 220 735 220 583 b 220 543 239 514 264 510 b 264 510 263 506 264 500 b 106 447 0 301 0 169 b 0 117 28 80 63 75 b 63 75 60 3 167 3 b 339 3 564 181 564 329 b 564 447 488 433 488 433 z m 517 834 b 552 834 564 807 564 778 b 564 671 451 521 360 521 b 328 521 319 540 319 580 b 319 700 419 834 517 834 z m 156 52 b 116 52 87 79 87 140 b 87 287 218 454 382 454 b 441 454 460 420 460 376 b 460 217 308 52 156 52 z"},"\\":{"x_min":0,"x_max":382,"ha":382,"o":"m 304 -138 b 304 -138 349 -138 349 -91 b 349 16 101 685 101 821 b 101 848 121 844 121 851 b 121 856 95 860 87 835 b 57 835 34 816 34 781 b 34 653 277 -18 277 -124 b 277 -149 260 -149 248 -149 b 240 -149 249 -168 269 -168 b 304 -168 304 -138 304 -138 z"},"e":{"x_min":0,"x_max":513,"ha":513,"o":"m 513 330 b 463 250 328 12 118 12 b 17 12 27 116 80 229 b 93 213 113 202 145 202 b 306 202 555 547 365 547 b 331 547 351 598 279 598 b 176 598 -72 279 -72 147 b -72 51 -5 50 -5 50 b 3 4 31 -39 107 -39 b 336 -39 495 231 545 317 b 560 340 528 353 513 330 z m 346 518 b 442 518 276 256 154 256 b 131 256 117 269 109 285 b 177 405 281 518 346 518 z"},"b":{"x_min":0,"x_max":622,"ha":622,"o":"m 622 330 b 566 255 402 33 198 -21 b 333 81 470 296 470 416 b 469 449 456 471 408 471 b 373 471 394 522 320 522 b 272 522 217 484 163 431 b 237 559 303 683 303 750 b 303 816 268 824 250 824 b 236 871 186 863 186 853 b 186 841 224 849 224 797 b 224 637 -116 200 -116 75 b -116 7 -59 -8 -59 -8 b -59 -8 -32 -77 66 -77 b 373 -77 593 216 656 317 b 671 341 638 355 622 330 z m 23 -16 b -9 -16 -19 8 -19 38 b -19 187 225 465 302 465 b 334 465 352 434 352 408 b 352 262 105 -16 23 -16 z"},"%":{"x_min":0,"x_max":541,"ha":541,"o":"m 42 -41 b 42 -41 42 -76 83 -76 b 106 -76 117 -53 107 -53 b 93 -53 73 -53 73 -25 b 73 118 488 676 488 834 b 488 875 474 896 439 896 b 429 926 399 922 399 915 b 399 907 422 912 422 881 b 422 703 0 166 0 14 b 0 -41 42 -41 42 -41 z m 96 641 b 96 641 91 598 147 598 b 231 598 297 686 297 742 b 297 760 290 791 261 791 b 240 791 245 820 212 820 b 130 820 62 744 62 685 b 62 635 96 641 96 641 z m 207 769 b 298 769 236 639 153 639 b 78 639 138 769 207 769 z m 255 43 b 255 43 250 0 306 0 b 390 0 456 88 456 144 b 456 162 449 193 420 193 b 399 193 404 222 371 222 b 289 222 221 146 221 87 b 221 37 255 43 255 43 z m 366 171 b 457 171 395 41 312 41 b 237 41 297 171 366 171 z"},"m":{"x_min":0,"x_max":831,"ha":831,"o":"m 831 330 b 779 247 587 -49 503 -49 b 463 -49 451 -7 451 44 b 451 180 680 442 680 532 b 680 554 673 560 652 560 b 619 560 623 587 590 587 b 538 587 469 518 406 442 b 422 471 432 494 432 508 b 432 530 425 537 404 537 b 371 537 375 563 342 563 b 286 563 210 483 143 399 b 155 431 163 461 163 486 b 163 552 128 560 111 560 b 96 606 47 598 47 589 b 47 577 84 585 84 533 b 84 415 -119 179 -119 95 b -119 41 -83 30 -83 30 b -83 30 -83 -24 -20 -24 b 16 -24 32 11 18 11 b -4 11 -35 11 -35 56 b -35 98 33 195 89 293 b 169 393 334 590 334 514 b 334 475 151 255 151 192 b 151 139 203 134 203 134 b 203 134 214 97 244 97 b 262 97 272 120 261 120 b 248 120 240 126 240 143 b 240 166 266 214 298 267 b 330 308 582 632 582 538 b 582 454 357 230 357 55 b 357 -4 388 -32 426 -44 b 426 -44 424 -98 488 -98 b 607 -98 812 227 865 317 b 880 341 847 355 831 330 z"},"#":{"x_min":0,"x_max":908,"ha":908,"o":"m 133 -30 b 133 -30 133 -58 166 -58 b 186 -58 194 -40 186 -40 b 175 -40 160 -40 160 -18 b 160 83 491 590 491 710 b 491 743 469 761 441 761 b 433 784 409 780 409 776 b 409 770 429 773 429 747 b 429 620 91 115 91 14 b 91 -30 133 -30 133 -30 z m 381 -21 b 381 -21 381 -49 414 -49 b 433 -49 441 -30 434 -30 b 423 -30 407 -30 407 -8 b 407 92 739 599 739 720 b 739 752 717 770 690 770 b 681 794 658 791 658 785 b 658 778 676 783 676 756 b 676 629 339 124 339 23 b 339 -21 381 -21 381 -21 z m 228 570 b 39 570 67 446 67 446 b 67 446 44 432 44 408 b 44 384 60 384 66 384 b 70 384 70 493 252 493 b 434 493 644 440 784 440 b 817 440 849 460 849 507 b 849 523 839 523 839 514 b 839 503 831 490 785 490 b 662 490 380 570 228 570 z m 179 349 b -11 349 16 225 16 225 b 16 225 -6 211 -6 186 b -6 162 11 163 16 163 b 21 163 21 271 203 271 b 385 271 605 249 744 249 b 778 249 810 270 810 316 b 810 331 799 333 799 323 b 799 312 792 299 746 299 b 622 299 329 349 179 349 z"},",":{"x_min":0,"x_max":324,"ha":324,"o":"m 83 35 b 83 25 112 35 112 -27 b 112 -87 74 -143 0 -143 b 0 -150 2 -173 39 -173 b 121 -173 178 -97 178 -34 b 178 11 142 12 142 12 l 142 12 b 131 52 83 42 83 35 z"},"n":{"x_min":0,"x_max":603,"ha":603,"o":"m 603 330 b 551 246 376 -25 293 -25 b 252 -25 241 18 241 68 b 241 205 470 466 470 556 b 470 578 462 585 442 585 b 408 585 413 612 380 612 b 317 612 231 513 158 421 b 171 452 179 483 179 511 b 179 577 144 585 127 585 b 112 631 63 623 63 614 b 63 602 100 609 100 558 b 100 439 -72 258 -72 173 b -72 120 -36 109 -36 109 b -36 109 -36 55 27 55 b 63 55 80 89 65 89 b 43 89 13 89 13 135 b 13 171 55 235 97 305 b 154 377 371 650 371 562 b 371 479 146 254 146 80 b 146 20 177 -7 215 -19 b 215 -19 213 -73 277 -73 b 397 -73 584 226 637 316 b 652 340 619 355 603 330 z"},"h":{"x_min":0,"x_max":625,"ha":625,"o":"m 625 330 b 573 246 334 -123 250 -123 b 210 -123 198 -80 198 -30 b 198 107 428 368 428 458 b 428 480 420 487 399 487 b 366 487 370 513 337 513 b 255 513 159 390 82 290 b 184 468 317 682 317 775 b 317 841 282 849 265 849 b 250 895 201 888 201 878 b 201 866 238 874 238 822 b 238 662 -114 202 -114 76 b -114 23 -78 12 -78 12 b -78 12 -78 -42 -15 -42 b 21 -42 37 -8 23 -8 b 1 -8 -29 -8 -29 38 b -29 61 -18 95 2 137 b 64 217 329 553 329 464 b 329 381 104 156 104 -18 b 104 -78 135 -106 173 -118 b 173 -118 171 -171 235 -171 b 354 -171 606 226 659 316 b 674 340 641 354 625 330 z"},"z":{"x_min":0,"x_max":628,"ha":628,"o":"m 559 474 b 566 496 567 566 468 566 b 411 566 231 503 153 503 b 144 503 135 504 127 507 b 144 545 142 579 111 579 b 90 579 59 555 52 526 b 49 497 64 478 73 473 b 51 428 19 364 0 330 b -12 308 16 290 33 316 b 47 341 74 390 92 429 b 102 420 126 412 154 412 b 197 412 407 468 468 468 b 468 468 468 468 468 468 b 555 468 541 438 541 438 b 533 390 31 237 -53 24 b -65 21 -87 7 -93 -22 b -100 -64 -76 -81 -62 -81 b -47 -81 -60 -68 -56 -46 b -53 -31 -35 -10 7 -10 b 91 -10 180 -60 313 -60 b 447 -60 437 21 437 21 b 437 21 461 30 465 57 b 468 69 465 88 457 88 b 442 88 463 27 342 27 b 260 27 142 69 66 79 b 140 208 563 327 580 420 b 585 448 574 466 559 474 z m 101 522 b 96 527 99 559 106 559 b 115 559 112 544 101 522 z"},"B":{"x_min":0,"x_max":797,"ha":797,"o":"m 131 -77 b 169 -77 186 -39 172 -39 b 149 -39 117 -39 117 9 b 117 132 406 450 406 589 b 406 659 371 670 352 670 b 337 719 286 710 286 700 b 286 688 325 696 325 640 b 325 485 30 169 30 51 b 30 -7 66 -19 66 -19 b 66 -19 66 -77 131 -77 z m 823 688 b 823 843 727 854 727 854 b 727 854 727 954 592 954 b 297 954 -114 665 -114 456 b -114 371 -40 359 -40 359 b -40 275 28 282 28 302 b 28 314 1 314 1 408 b 1 627 347 898 602 898 b 691 898 705 812 705 746 b 705 577 550 364 358 310 b 328 301 314 253 360 260 b 364 260 367 261 370 261 b 379 262 387 262 396 262 b 462 262 472 199 472 150 b 472 56 360 -109 188 -109 b 181 -109 171 -108 159 -103 b 137 -94 141 -88 137 -86 b 134 -84 117 -100 145 -112 b 145 -112 146 -128 166 -137 b 173 -140 186 -140 194 -140 b 408 -140 553 39 553 124 b 553 224 488 230 488 230 b 488 230 488 262 459 284 b 667 357 823 550 823 688 z"},"K":{"x_min":0,"x_max":1007,"ha":1007,"o":"m 1021 860 b 1030 882 1025 920 1004 929 b 982 939 971 928 968 921 b 965 914 1010 881 957 753 b 887 581 590 410 463 387 b 539 527 611 664 611 734 b 611 800 578 809 561 809 b 561 809 560 861 465 861 b 236 861 -94 562 -94 381 b -94 307 -41 283 -41 283 b -41 199 27 206 27 226 b 27 238 0 238 0 332 b 0 551 282 834 463 834 b 499 834 535 823 535 782 b 535 718 482 606 417 487 b 398 496 373 479 363 450 b 363 450 348 420 365 392 b 281 242 197 97 197 35 b 197 -19 232 -30 232 -30 b 232 -30 232 -84 292 -84 b 327 -84 343 -49 329 -49 b 307 -49 279 -49 279 -4 b 279 51 343 170 414 300 b 450 165 546 -126 711 -166 b 783 -184 816 -140 816 -140 b 916 -164 899 -89 886 -86 b 874 -83 873 -108 793 -88 b 561 -32 459 293 442 350 b 443 352 444 353 445 355 b 604 350 977 536 1054 723 b 1097 828 1021 860 1021 860 z"},"R":{"x_min":0,"x_max":769,"ha":769,"o":"m 735 -186 b 722 -183 721 -208 641 -188 b 407 -131 304 201 290 252 b 290 252 290 252 290 252 b 580 252 823 510 823 684 b 823 839 727 850 727 850 b 727 850 727 949 592 949 b 297 949 -114 660 -114 452 b -114 367 -40 354 -40 354 b -40 270 28 277 28 298 b 28 310 1 310 1 404 b 1 623 347 894 602 894 b 691 894 705 808 705 742 b 705 554 514 313 293 294 b 326 351 350 409 350 462 b 350 528 317 536 300 536 b 286 582 238 574 238 565 b 238 553 274 561 274 509 b 274 461 256 411 230 360 b 220 361 207 355 199 342 b 190 328 189 311 197 301 b 138 204 68 110 68 36 b 68 -17 103 -29 103 -29 b 103 -29 102 -82 163 -82 b 198 -82 213 -48 199 -48 b 178 -48 149 -48 149 -2 b 149 62 203 144 255 229 b 284 113 381 -223 559 -267 b 632 -284 664 -240 664 -240 b 764 -264 747 -189 735 -186 z"},"T":{"x_min":0,"x_max":791,"ha":791,"o":"m 376 949 b 229 949 245 844 245 844 b 245 844 211 833 211 808 b 211 782 226 780 234 780 b 241 780 258 883 387 883 b 566 883 780 696 960 696 b 1138 696 1141 824 1141 824 b 1141 824 1171 836 1171 862 b 1171 880 1159 888 1149 888 b 1139 888 1126 797 975 797 b 716 797 587 949 376 949 z m 878 739 b 924 739 940 712 940 729 b 940 753 927 796 870 796 b 521 796 423 -77 94 -77 b -138 -77 98 626 384 626 b 445 626 422 587 461 587 b 496 587 467 658 425 658 b 358 658 397 691 329 691 b 126 691 -111 306 -111 121 b -111 -24 -51 -43 -8 -47 b -8 -47 -16 -140 83 -140 b 532 -140 622 739 878 739 z"},"P":{"x_min":0,"x_max":732,"ha":732,"o":"m 727 850 b 727 850 727 949 592 949 b 297 949 -114 660 -114 452 b -114 367 -40 354 -40 354 b -40 270 28 277 28 298 b 28 310 1 310 1 404 b 1 623 347 894 602 894 b 691 894 705 808 705 742 b 705 554 515 313 294 294 b 326 352 350 409 350 462 b 350 528 317 536 300 536 b 286 582 238 574 238 565 b 238 553 274 561 274 509 b 274 443 240 373 199 303 b 179 314 171 331 171 359 b 171 382 190 396 190 405 b 190 425 142 427 142 373 b 142 335 154 302 185 280 b 129 189 69 103 69 35 b 69 -19 104 -30 104 -30 b 104 -30 103 -84 164 -84 b 199 -84 215 -50 200 -50 b 179 -50 150 -50 150 -4 b 150 67 215 159 271 253 b 277 252 283 252 290 252 b 580 252 823 510 823 684 b 823 839 727 850 727 850 z"},"|":{"x_min":0,"x_max":253,"ha":253,"o":"m 56 -140 b 56 -140 56 -170 91 -170 b 111 -170 120 -151 112 -151 b 100 -151 83 -151 83 -126 b 83 -20 83 633 83 761 b 83 821 44 835 14 835 b 6 860 -20 856 -20 851 b -20 844 0 848 0 821 b 0 685 0 34 0 -73 b 0 -143 56 -140 56 -140 z"},"t":{"x_min":0,"x_max":370,"ha":370,"o":"m 282 898 b 282 779 -103 228 -103 53 b -103 -6 -72 -34 -34 -46 b -34 -46 -36 -100 28 -100 b 148 -100 351 226 404 316 b 419 340 386 354 370 330 b 318 246 127 -51 44 -51 b 3 -51 -8 -9 -8 42 b -8 219 361 724 361 851 b 361 917 326 925 308 925 b 294 971 244 963 244 954 b 244 942 282 949 282 898 z m 148 751 b -83 751 -25 605 -25 605 b -25 605 -52 590 -52 561 b -52 532 -32 533 -26 533 b -19 533 -14 660 177 660 b 310 660 396 653 566 653 b 605 653 654 677 654 732 b 654 750 632 751 632 740 b 632 728 624 713 567 713 b 388 713 267 751 148 751 z"},"M":{"x_min":0,"x_max":1175,"ha":1175,"o":"m 918 69 b 918 214 1182 531 1182 606 b 1182 628 1175 635 1155 635 b 1123 635 1128 667 1096 667 b 1011 667 836 474 743 358 b 821 504 933 674 933 711 b 933 734 925 740 906 740 b 874 740 878 767 846 767 b 767 767 509 474 380 316 b 478 497 614 720 614 816 b 614 882 580 891 563 891 b 563 891 562 943 467 943 b 238 943 -92 644 -92 463 b -92 389 -39 365 -39 365 b -39 281 29 288 29 308 b 29 320 2 320 2 414 b 2 633 284 916 466 916 b 502 916 538 905 538 864 b 538 703 200 243 200 117 b 200 63 234 52 234 52 b 234 52 234 -2 294 -2 b 329 -2 345 33 331 33 b 310 33 281 33 281 78 b 281 92 285 110 292 132 b 392 256 838 807 838 717 b 838 679 587 353 587 222 b 587 169 622 157 622 157 b 622 157 622 104 682 104 b 717 104 733 138 719 138 b 697 138 672 143 672 171 b 672 256 1088 712 1088 612 b 1088 557 821 249 821 48 b 821 -101 923 -85 923 -85 b 923 -85 928 -135 968 -135 b 998 -135 1000 -115 1000 -107 b 1000 -99 918 -75 918 69 z"},"g":{"x_min":0,"x_max":544,"ha":544,"o":"m 313 568 b 314 568 315 568 316 568 b 317 568 318 568 319 568 z m 544 330 b 484 219 419 160 327 83 b 372 178 399 271 399 342 b 399 408 364 416 347 416 b 332 462 283 454 283 445 b 283 433 320 440 320 389 b 320 359 315 324 304 285 b 282 246 152 22 68 22 b -114 22 215 509 367 509 b 406 509 393 483 418 483 b 440 483 421 537 394 537 b 352 537 356 567 316 568 b 159 564 -78 263 -78 173 b -78 99 -24 83 -24 83 b -24 83 -15 -17 64 -17 b 118 -17 178 32 226 83 b 206 41 182 -2 157 -44 b -41 -176 -224 -260 -224 -346 b -224 -384 -199 -388 -189 -389 b -188 -404 -176 -426 -143 -426 b -20 -426 166 -218 284 -2 b 407 99 505 185 578 316 b 593 340 560 355 544 330 z m -182 -375 b -186 -375 -192 -374 -192 -365 b -192 -332 -67 -258 88 -150 b -4 -278 -106 -375 -182 -375 z"},"j":{"x_min":0,"x_max":262,"ha":262,"o":"m 52 471 b 37 517 -12 509 -12 500 b -12 488 25 495 25 444 b 25 236 -378 -343 -498 -343 b -553 -343 -547 -295 -557 -295 b -584 -295 -596 -391 -513 -391 b -250 -391 121 175 121 387 b 121 467 69 471 52 471 z m 90 725 b 42 725 25 552 56 552 b 99 552 168 624 168 666 b 168 701 140 725 90 725 z"},"i":{"x_min":0,"x_max":290,"ha":290,"o":"m 28 409 b 28 421 24 426 16 426 b -14 426 4 458 36 458 b 70 458 65 432 98 432 b 119 432 131 426 131 404 b 131 353 -33 110 -33 4 b -33 -34 -12 -54 9 -54 b 68 -54 238 246 290 330 b 306 355 339 340 324 316 b 271 226 93 -91 4 -91 b -45 -91 -64 -39 -64 -39 b -102 -26 -121 2 -121 62 b -121 146 28 343 28 409 z m 148 752 b 89 752 68 539 105 539 b 158 539 243 629 243 679 b 243 723 208 752 148 752 z"},"y":{"x_min":0,"x_max":539,"ha":539,"o":"m 539 330 b 465 193 351 94 236 22 b 320 161 379 310 379 414 b 379 480 344 489 326 489 b 312 535 262 527 262 518 b 262 506 300 513 300 462 b 300 454 300 446 299 438 b 284 304 94 49 20 49 b 5 49 1 61 1 74 b 1 180 132 348 132 415 b 132 481 96 489 79 489 b 64 535 15 527 15 518 b 15 506 52 513 52 462 b 52 396 -80 215 -80 130 b -80 71 -53 43 -15 31 b -15 31 -11 4 21 4 b 68 4 145 79 212 168 b 174 88 127 7 76 -65 b -97 -149 -245 -196 -245 -273 b -245 -312 -219 -316 -210 -316 b -209 -332 -196 -354 -164 -354 b -64 -354 75 -220 187 -55 b 333 35 486 159 573 317 b 588 341 556 355 539 330 z m -202 -303 b -207 -303 -213 -302 -213 -293 b -213 -265 -119 -222 6 -157 b -68 -244 -143 -303 -202 -303 z"},"@":{"x_min":0,"x_max":872,"ha":872,"o":"m 770 622 b 753 666 717 695 651 695 b 18 695 -140 -61 214 -61 b 265 -61 287 -32 287 -32 b 296 -39 308 -44 322 -44 b 350 -44 361 -19 361 -9 b 361 1 353 9 353 9 b 342 6 329 5 311 5 b -85 5 212 659 639 659 b 857 659 648 110 536 110 b 522 110 520 128 520 142 b 520 195 611 302 611 352 b 611 422 562 426 550 426 b 541 457 506 451 506 446 b 506 437 532 442 532 408 b 532 380 506 331 480 282 b 462 257 387 155 345 155 b 228 155 461 486 556 486 b 584 486 576 468 594 468 b 609 468 595 507 576 507 b 545 507 553 528 521 528 b 366 528 227 321 227 246 b 227 181 273 177 273 177 b 273 177 279 106 335 106 b 364 106 402 132 433 160 b 436 118 451 111 473 103 b 473 103 472 68 514 68 b 766 68 927 622 770 622 z"},".":{"x_min":0,"x_max":424,"ha":424,"o":"m 74 21 b 74 21 72 0 99 0 b 139 0 171 42 171 69 b 171 78 168 93 154 93 b 144 93 146 107 130 107 b 91 107 58 70 58 42 b 58 18 74 21 74 21 z"},"p":{"x_min":0,"x_max":610,"ha":610,"o":"m 610 330 b 554 255 439 98 235 44 b 370 145 507 360 507 480 b 507 513 493 535 445 535 b 411 535 431 586 358 586 b 291 586 212 515 139 428 b 145 446 147 463 147 476 b 147 542 112 551 95 551 b 80 597 31 589 31 579 b 31 567 68 575 68 523 b 68 363 -271 -73 -271 -199 b -271 -252 -235 -264 -235 -264 b -235 -264 -235 -318 -173 -318 b -136 -318 -120 -283 -134 -283 b -156 -283 -187 -283 -187 -238 b -187 -175 -103 -34 -20 110 b -20 91 -20 19 30 19 b 69 19 64 -12 103 -12 b 410 -12 581 216 644 316 b 659 340 626 355 610 330 z m 60 48 b -20 48 38 202 48 227 b 131 352 262 529 340 529 b 371 529 390 499 390 472 b 390 327 142 48 60 48 z"},"X":{"x_min":0,"x_max":678,"ha":678,"o":"m 775 750 b 775 812 729 830 729 830 b 729 830 749 903 695 903 b 684 903 676 894 676 891 b 676 888 691 867 691 821 b 691 656 565 527 394 422 b 407 495 418 595 418 672 b 418 738 361 752 344 752 b 344 752 359 828 265 828 b 104 828 -115 693 -115 576 b -115 490 -41 478 -41 478 b -41 394 27 401 27 421 b 27 434 0 434 0 527 b 0 642 178 777 263 777 b 273 777 281 776 288 774 b 298 769 318 764 319 728 b 319 727 319 726 319 725 b 319 585 306 474 290 379 b 82 260 -136 165 -136 41 b -136 -13 -94 -30 -94 -30 b -94 -30 -95 -84 -34 -84 b 0 -84 16 -50 2 -50 b -19 -50 -48 -50 -48 -4 b -48 126 105 224 279 320 b 260 214 240 128 240 39 b 240 -109 343 -94 343 -94 b 343 -94 348 -143 388 -143 b 418 -143 420 -123 420 -116 b 420 -108 361 -89 361 54 b 361 192 372 281 384 358 b 590 468 775 588 775 750 z"},"*":{"x_min":0,"x_max":395,"ha":395,"o":"m 295 715 b 295 715 288 725 283 721 b 273 712 247 704 217 697 b 230 722 239 747 239 762 b 239 778 229 786 215 786 b 215 786 209 786 209 780 b 209 759 197 730 182 701 b 161 727 138 748 123 756 b 108 762 96 756 90 742 b 90 742 88 736 94 733 b 112 725 134 704 155 682 b 123 673 96 663 82 653 b 70 642 70 629 79 618 b 79 618 84 614 88 618 b 102 630 126 638 153 645 b 138 618 126 594 126 582 b 126 559 147 559 147 559 b 147 559 159 559 159 565 b 159 582 173 611 189 641 b 212 612 233 588 247 582 b 267 574 276 592 276 592 b 276 592 279 604 274 608 b 259 612 239 635 217 660 b 252 668 282 676 292 686 b 309 700 295 715 295 715 z"},"Y":{"x_min":0,"x_max":833,"ha":833,"o":"m 422 -339 b 422 -84 841 451 841 599 b 841 665 808 673 791 673 b 777 719 729 711 729 702 b 729 690 766 698 766 646 l 766 646 b 766 551 335 -34 266 -34 b 257 -34 247 -24 247 6 b 265 145 613 611 613 799 b 613 865 579 873 562 873 b 562 873 561 949 466 949 b 237 949 -114 653 -114 445 b -114 359 -40 347 -40 347 b -40 263 28 270 28 290 b 28 302 1 302 1 396 b 1 615 283 898 465 898 b 501 898 537 887 537 846 b 537 634 165 160 165 35 b 165 -19 200 -30 200 -30 b 200 -30 199 -84 260 -84 b 268 -84 275 -82 280 -79 b 349 -52 464 94 561 231 b 445 25 324 -207 324 -360 b 324 -508 427 -493 427 -493 b 427 -493 432 -542 471 -542 b 501 -542 503 -522 503 -514 b 503 -507 422 -482 422 -339 z"},"c":{"x_min":0,"x_max":512,"ha":512,"o":"m 115 -25 b 344 -25 494 231 545 317 b 559 340 528 353 512 330 b 463 250 336 26 126 26 b -95 26 218 532 354 532 b 405 532 383 459 332 390 b 313 358 362 347 381 368 b 451 461 476 561 374 561 b 340 561 360 612 287 612 b 185 612 -64 293 -64 161 b -64 65 4 64 4 64 b 11 17 39 -25 115 -25 z"},"!":{"x_min":0,"x_max":551,"ha":551,"o":"m 92 -88 b 150 -88 170 117 134 117 b 84 117 1 31 1 -18 b 1 -60 35 -88 92 -88 z m 179 196 b 179 196 179 160 221 160 b 245 160 257 183 247 183 b 232 183 212 183 212 213 b 212 341 505 717 505 860 b 505 902 477 926 441 926 b 431 955 400 950 400 944 b 400 937 424 942 424 909 b 424 755 125 382 125 253 b 125 196 179 196 179 196 z"},"/":{"x_min":0,"x_max":541,"ha":541,"o":"m 79 -138 b 79 -138 79 -168 114 -168 b 134 -168 143 -149 135 -149 b 123 -149 106 -149 106 -124 b 106 -18 523 653 523 781 b 523 816 500 835 470 835 b 462 860 436 856 436 851 b 436 844 456 848 456 821 b 456 685 34 16 34 -91 b 34 -138 79 -138 79 -138 z"},"[":{"x_min":0,"x_max":622,"ha":622,"o":"m 662 870 b 662 870 656 881 645 876 b 592 854 522 873 474 869 b 464 876 452 879 438 879 b 430 906 401 901 401 896 b 401 889 423 893 423 864 b 423 715 -60 -1 -60 -117 b -60 -168 -11 -168 -11 -168 b -11 -168 -11 -187 6 -196 b 8 -198 11 -200 15 -201 b 60 -224 149 -180 215 -208 b 226 -213 231 -202 231 -202 b 243 -177 235 -151 207 -138 b 162 -120 70 -152 21 -133 b 51 5 468 648 494 801 b 543 803 603 792 638 807 b 666 819 673 845 662 870 z"},"6":{"x_min":0,"x_max":577,"ha":577,"o":"m 679 869 b 613 869 654 900 588 900 b 299 900 0 419 0 218 b 0 142 24 90 65 86 b 65 86 55 3 152 3 b 329 3 561 208 561 397 b 561 506 495 503 495 503 b 495 503 514 601 405 601 b 355 601 301 583 247 552 b 362 709 508 839 635 839 b 673 839 680 820 680 804 b 680 783 736 778 736 804 b 736 840 721 869 679 869 z m 386 534 b 441 534 465 497 467 438 b 467 273 331 59 162 59 b 91 59 30 151 113 327 b 182 447 306 534 386 534 z"},"r":{"x_min":0,"x_max":533,"ha":533,"o":"m 533 330 b 481 246 418 183 355 183 b 314 183 299 203 299 242 b 299 296 440 444 440 506 b 440 528 432 535 412 535 b 379 535 375 575 342 575 b 292 575 188 449 110 349 b 117 370 121 390 121 408 b 121 474 86 482 69 482 b 54 528 5 520 5 511 b 5 499 42 507 42 455 b 42 337 -160 114 -160 29 b -160 -24 -124 -36 -124 -36 b -124 -36 -124 -90 -61 -90 b -25 -90 -8 -55 -23 -55 b -45 -55 -75 -55 -75 -10 b -75 15 -52 58 -21 108 b 60 219 341 597 341 512 b 341 470 209 320 209 267 b 209 221 240 201 278 188 b 278 188 276 135 340 135 b 433 135 514 226 567 316 b 582 340 549 355 533 330 z"},"2":{"x_min":0,"x_max":737,"ha":737,"o":"m 525 128 b 515 125 531 94 486 82 b 409 60 313 92 225 121 b 462 299 736 587 736 769 b 736 850 673 848 673 848 b 673 848 672 900 604 900 b 439 900 172 720 172 576 b 172 487 240 485 240 485 b 240 427 289 432 289 446 b 289 454 269 455 269 519 b 269 670 472 865 603 865 b 637 865 656 842 656 799 b 656 658 354 328 146 144 b 105 154 68 158 38 149 b -8 136 -9 102 -9 102 b -9 102 -56 89 -40 35 b -33 11 -12 2 -4 4 b -3 4 -2 4 -1 4 b 31 4 80 25 137 60 b 243 35 371 -25 465 1 b 522 18 520 50 516 65 b 552 89 533 130 525 128 z m 26 67 b 35 69 45 71 56 71 b 28 52 7 41 -4 41 b -2 51 6 61 26 67 z"},"{":{"x_min":0,"x_max":561,"ha":561,"o":"m 129 392 b 137 392 151 392 158 388 b 160 387 162 386 164 386 b 170 380 174 369 173 349 b 168 279 -66 -67 -72 -145 b -77 -204 -34 -213 -19 -213 b -10 -254 35 -248 36 -238 b 37 -228 1 -235 5 -188 b 12 -92 253 249 258 314 b 260 342 242 358 232 365 b 245 367 261 371 280 384 b 341 434 499 787 554 828 b 589 851 605 829 615 812 b 621 802 640 833 623 859 b 594 906 553 877 553 877 b 553 877 526 900 484 871 b 430 831 260 464 204 417 b 201 416 200 416 199 415 b 192 420 183 424 168 424 b 160 424 152 421 143 417 b 142 417 142 417 141 416 b 141 416 141 416 141 416 b 126 407 121 392 129 392 z"},"9":{"x_min":0,"x_max":735,"ha":735,"o":"m 669 817 b 669 817 679 900 583 900 b 405 900 126 634 126 445 b 126 336 193 338 193 338 b 193 338 174 241 283 241 b 333 241 387 259 440 290 b 325 132 201 63 101 63 b 62 63 55 82 55 99 b 55 120 0 125 0 99 b 0 62 15 33 57 33 b 123 33 82 3 147 3 b 436 3 735 483 735 685 b 735 760 710 812 669 817 z m 302 308 b 247 308 222 344 221 404 b 221 568 404 844 573 844 b 678 844 658 690 574 514 b 506 395 382 308 302 308 z"}," ":{"x_min":0,"x_max":399,"ha":399,"o":""},"I":{"x_min":0,"x_max":586,"ha":586,"o":"m 560 872 l 560 872 b 560 872 559 948 464 948 b 235 948 -116 652 -116 444 b -116 358 -42 346 -42 346 b -42 262 26 269 26 289 b 26 301 -1 301 -1 395 b -1 615 281 897 463 897 b 496 897 530 888 534 853 b 535 850 535 848 535 845 b 535 676 121 -65 31 -65 b 1 -65 -1 -35 -12 -35 b -38 -35 -19 -118 30 -118 b 46 -118 57 -114 64 -108 b 64 -108 75 -116 87 -116 b 210 -116 627 612 627 785 b 627 856 577 872 560 872 z"},"H":{"x_min":0,"x_max":881,"ha":881,"o":"m 770 412 b 770 412 772 451 733 486 b 807 629 879 759 879 817 b 879 886 844 895 826 895 b 812 943 762 934 762 925 b 762 913 800 920 800 866 b 800 781 733 654 659 523 b 643 526 626 528 608 528 b 575 528 537 522 497 511 b 560 645 602 757 602 796 b 602 865 567 874 549 874 l 549 874 b 549 874 548 953 450 953 b 211 953 -156 644 -156 426 b -156 337 -78 325 -78 325 b -78 236 -7 244 -7 264 b -7 278 -36 278 -36 375 b -36 605 258 900 448 900 b 483 900 518 891 522 854 b 522 851 522 848 522 846 b 522 780 463 633 384 473 b 204 398 23 261 23 168 b 23 153 29 143 38 138 b 49 132 75 164 67 171 b 64 173 63 176 63 179 b 63 218 182 313 332 372 b 204 131 49 -105 -3 -105 b -34 -105 -36 -75 -47 -75 b -74 -75 -54 -161 -4 -161 b 14 -161 25 -157 33 -150 b 33 -150 44 -159 57 -159 b 133 -159 314 141 447 407 b 486 416 526 421 566 421 b 577 421 590 421 602 420 b 527 287 462 159 462 69 b 462 -58 568 -75 568 -75 b 568 -75 573 -129 623 -129 b 650 -129 649 -107 649 -107 b 609 -81 573 -35 573 47 b 573 142 627 272 689 399 b 700 396 709 391 719 386 b 796 346 780 326 792 319 b 804 313 866 362 770 412 z"},"4":{"x_min":0,"x_max":663,"ha":663,"o":"m 557 415 b 547 410 569 383 528 361 b 505 348 478 341 448 337 b 554 526 663 695 663 790 b 663 856 628 864 611 864 b 596 910 547 902 547 893 b 547 881 584 888 584 837 b 584 835 584 833 584 831 b 569 714 177 477 54 336 b 50 334 46 332 43 331 b 0 308 7 274 7 274 b 7 274 -36 251 -9 201 b 6 172 41 174 35 186 b 25 203 12 227 48 247 b 101 276 201 264 300 257 b 270 198 251 150 251 121 b 251 67 287 56 287 56 b 287 56 286 2 349 2 b 386 2 402 37 388 37 b 365 37 335 37 335 82 b 335 116 362 178 402 253 b 449 254 492 260 525 278 b 577 306 569 337 561 351 b 592 383 564 419 557 415 z m 129 348 b 219 437 404 539 530 672 b 472 551 411 460 342 335 b 268 339 191 350 129 348 z"},"~":{"x_min":0,"x_max":673,"ha":673,"o":"m 440 762 b 375 753 296 811 234 802 b 195 796 191 769 191 769 b 191 769 151 763 158 717 b 161 690 189 682 187 693 b 185 709 182 731 215 736 b 273 745 348 689 414 699 b 462 706 465 732 463 745 b 495 760 484 796 477 795 b 468 794 478 767 440 762 z"},"D":{"x_min":0,"x_max":838,"ha":838,"o":"m 546 951 b 223 951 -118 704 -118 492 b -118 405 -42 392 -42 392 b -42 307 27 314 27 334 b 27 347 0 347 0 442 b 0 666 312 884 562 884 b 642 884 723 811 723 676 b 723 391 310 -101 144 -101 b 112 -101 99 -64 99 -29 b 99 71 312 310 312 425 b 312 502 266 519 249 519 b 235 566 186 558 186 548 b 186 536 223 544 223 491 b 223 327 -1 158 -1 30 b -1 -37 37 -61 74 -65 b 74 -65 71 -137 144 -137 b 338 -137 832 326 832 673 b 832 894 652 882 652 882 b 637 923 595 951 546 951 z"},"^":{"x_min":0,"x_max":833,"ha":833,"o":"m 238 688 b 238 688 344 755 436 755 b 496 755 507 651 515 651 b 539 651 533 777 491 777 b 449 777 450 832 401 832 b 335 832 187 688 238 688 z"},"0":{"x_min":0,"x_max":701,"ha":701,"o":"m 650 859 b 590 859 621 900 561 900 b 297 900 0 464 0 203 b 0 138 41 90 78 86 b 78 86 76 0 163 0 b 423 0 701 441 701 734 b 701 791 682 859 650 859 z m 165 46 b -58 46 311 831 604 831 b 638 831 654 800 654 725 b 654 470 394 46 165 46 z"},"F":{"x_min":0,"x_max":833,"ha":833,"o":"m 1024 874 b 1020 874 1015 860 1002 843 b 995 864 977 885 937 885 b 871 885 811 849 756 790 b 557 820 435 935 251 935 b 104 935 120 831 120 831 b 120 831 86 819 86 794 b 86 769 101 767 109 767 b 117 767 133 869 262 869 b 396 869 550 765 694 712 b 644 641 598 554 553 464 b 508 472 463 489 424 513 b 395 530 382 514 402 488 b 423 459 470 425 522 401 b 404 162 293 -75 147 -75 b -14 -75 148 389 325 389 b 387 389 364 351 403 351 b 437 351 409 421 367 421 b 299 421 339 454 271 454 b 162 454 0 261 0 76 b 0 43 13 -20 46 -20 b 46 -20 59 -113 158 -113 b 355 -113 489 133 607 373 b 634 368 660 368 681 376 b 743 398 748 448 748 448 b 834 479 788 528 777 524 b 766 520 777 501 707 476 b 689 469 670 465 651 462 b 692 546 732 626 773 689 b 794 685 815 682 835 682 b 1013 682 1016 811 1016 811 b 1016 811 1046 822 1046 849 b 1046 867 1034 874 1024 874 z m 850 783 b 849 783 849 783 848 783 b 879 812 911 828 945 828 b 960 828 973 825 982 822 b 958 802 918 783 850 783 z"},"`":{"x_min":0,"x_max":465,"ha":465,"o":"m 184 852 b 136 852 143 806 143 806 b 143 806 123 797 123 772 b 123 730 183 665 260 665 b 312 665 337 687 337 706 b 337 715 334 718 331 718 b 328 718 321 708 287 708 b 222 708 177 774 177 818 b 177 837 189 843 189 848 b 189 850 188 852 184 852 z"},"k":{"x_min":0,"x_max":567,"ha":567,"o":"m 567 330 b 516 246 336 -31 253 -31 b 145 -31 159 178 159 262 b 160 262 161 262 162 262 b 255 262 480 365 480 538 b 480 560 473 579 452 579 b 419 579 423 605 390 605 b 328 605 251 536 182 456 b 243 561 293 659 293 719 b 293 784 258 793 240 793 b 226 839 176 831 176 822 b 176 810 214 817 214 766 b 214 605 -157 136 -157 10 b -157 -43 -121 -55 -121 -55 b -121 -55 -121 -108 -58 -108 b -22 -108 -5 -74 -20 -74 b -42 -74 -72 -74 -72 -28 b -72 9 -3 141 38 214 b 45 223 56 237 70 254 b 70 143 74 -11 175 -26 b 175 -26 174 -79 238 -79 b 357 -79 548 226 601 316 b 616 340 584 354 567 330 z m 382 556 b 382 440 267 348 134 333 b 238 458 382 620 382 556 z"},"u":{"x_min":0,"x_max":547,"ha":547,"o":"m 547 330 b 495 247 363 -38 279 -38 b 238 -38 239 0 239 23 b 239 144 406 358 406 440 b 406 506 371 514 353 514 b 339 560 289 552 289 543 b 289 531 327 538 327 487 b 327 465 315 433 296 394 b 219 274 83 74 33 74 b 18 74 14 85 14 99 b 14 205 144 373 144 440 b 144 506 109 514 92 514 b 77 560 28 552 28 543 b 28 531 65 538 65 487 b 65 421 -67 240 -67 155 b -67 96 -40 68 -2 56 b -2 56 1 29 34 29 b 63 29 102 63 163 142 b 162 142 143 91 143 57 b 143 11 172 -11 209 -23 b 209 -23 208 -77 272 -77 b 391 -77 528 226 581 317 b 596 341 563 355 547 330 z"},"]":{"x_min":0,"x_max":622,"ha":622,"o":"m -101 -192 b -101 -192 -95 -203 -84 -198 b -31 -176 39 -195 87 -191 b 97 -198 109 -201 123 -201 b 131 -228 160 -223 160 -218 b 160 -211 138 -215 138 -186 b 138 -37 621 679 621 795 b 621 846 572 846 572 846 b 572 846 572 865 555 874 b 553 876 550 878 546 879 b 501 902 412 858 346 886 b 335 891 330 880 330 880 b 318 855 326 829 354 816 b 399 798 491 830 540 811 b 510 673 93 30 67 -123 b 18 -125 -42 -114 -77 -129 b -105 -141 -112 -167 -101 -192 z"},"U":{"x_min":0,"x_max":978,"ha":978,"o":"m 731 90 b 731 253 978 583 978 667 b 978 741 940 750 922 750 b 906 802 853 793 853 783 b 853 769 893 778 893 720 l 893 720 b 893 694 846 615 790 515 b 652 302 416 10 363 10 b 352 10 341 21 341 55 l 341 55 b 358 207 684 654 684 819 b 684 892 647 902 628 902 b 628 902 626 987 521 987 b 264 987 -129 655 -129 422 b -129 327 -46 313 -46 313 b -46 219 30 227 30 249 b 30 263 0 263 0 368 b 0 614 315 930 519 930 b 559 930 599 918 599 871 b 599 692 249 227 249 87 b 249 27 288 14 288 14 b 288 14 288 -47 355 -47 b 362 -47 369 -45 374 -43 b 447 -19 567 127 669 267 b 641 196 622 126 622 66 b 622 -99 737 -82 737 -82 b 737 -82 742 -137 786 -137 b 820 -137 822 -115 822 -106 b 822 -98 731 -70 731 90 z"},"o":{"x_min":0,"x_max":488,"ha":488,"o":"m 488 330 b 426 254 369 172 253 160 b 336 258 399 381 399 469 b 399 522 364 529 347 529 b 338 552 304 576 276 576 b 131 576 -11 453 -11 313 b -11 311 -11 308 -11 306 b -73 254 -121 168 -121 124 b -121 76 -90 54 -52 44 b -52 44 -53 0 10 0 b 73 0 150 51 219 122 b 371 127 460 228 522 318 b 537 339 504 352 488 330 z m 309 519 b 418 519 329 300 202 162 b 107 174 88 238 85 285 b 102 302 119 313 131 313 b 161 313 151 295 170 295 b 187 295 170 329 150 329 b 119 329 121 347 94 350 b 126 434 228 519 309 519 z m 23 207 b 52 167 99 135 166 125 b 117 81 65 52 18 52 b -47 52 -22 135 23 207 z"},"N":{"x_min":0,"x_max":904,"ha":904,"o":"m 612 70 b 612 215 876 532 876 607 b 876 629 868 636 849 636 b 817 636 821 668 789 668 b 717 668 545 529 431 416 b 518 573 610 738 610 817 b 610 884 577 892 560 892 b 560 892 559 944 464 944 b 235 944 -95 645 -95 464 b -95 390 -42 366 -42 366 b -42 282 26 289 26 309 b 26 321 -1 321 -1 415 b -1 634 281 917 462 917 b 498 917 534 906 534 865 b 534 704 196 244 196 118 b 196 64 231 53 231 53 b 231 53 231 -1 291 -1 b 326 -1 342 34 328 34 b 306 34 278 34 278 79 b 278 111 299 165 332 231 b 434 379 781 699 781 613 b 781 558 514 250 514 49 b 514 -99 617 -84 617 -84 b 617 -84 622 -133 661 -133 b 691 -133 693 -114 693 -106 b 693 -98 612 -73 612 70 z"},"+":{"x_min":0,"x_max":416,"ha":416,"o":"m 406 486 b 406 486 401 496 391 491 b 360 476 309 474 254 476 b 277 523 295 566 295 594 b 295 621 277 636 254 636 b 254 636 243 636 243 625 b 243 587 219 534 192 480 b 119 485 51 491 24 478 b -9 463 5 431 5 431 b 5 431 14 412 24 416 b 49 427 102 426 162 424 b 130 366 102 313 102 286 b 102 249 137 249 137 249 b 137 249 158 249 158 260 b 158 292 192 355 225 420 b 291 417 354 416 385 430 b 410 441 416 464 406 486 z"},"G":{"x_min":0,"x_max":833,"ha":833,"o":"m 525 424 b 614 424 834 674 852 843 b 855 879 835 917 789 917 b 718 917 763 952 691 952 b 590 952 483 888 383 794 b 258 827 123 840 44 776 b -14 729 -1 675 -1 675 b -82 609 -16 576 -6 585 b 5 593 -14 609 51 661 b 127 723 227 738 323 733 b 142 533 1 249 1 110 b 1 24 28 -35 72 -40 b 72 -40 54 -137 159 -137 b 305 -137 487 28 561 224 b 579 221 597 217 615 211 b 685 186 674 167 685 163 b 696 159 742 207 656 238 b 656 238 651 288 589 311 b 507 340 355 258 310 198 b 290 173 303 156 332 174 b 375 199 424 217 474 224 b 430 62 272 -70 177 -70 b -19 -70 187 441 449 715 b 494 706 534 694 566 683 b 507 651 439 587 434 537 b 428 479 469 479 469 479 b 469 479 460 424 525 424 z m 616 666 l 616 667 b 635 668 654 692 631 703 b 598 718 550 739 494 759 b 577 835 663 884 742 884 b 784 884 793 862 791 843 b 781 739 607 501 521 501 b 439 501 579 666 616 666 z"},"q":{"x_min":0,"x_max":584,"ha":584,"o":"m 371 631 b 372 631 373 631 374 631 b 375 631 376 631 377 631 l 371 631 z m 459 597 b 413 597 418 630 374 631 b 202 627 -57 297 -57 199 b -57 118 2 100 2 100 b 2 100 12 -9 98 -9 b 128 -9 166 10 203 37 b 126 -95 54 -218 54 -276 b 54 -329 90 -340 90 -340 b 90 -340 90 -394 153 -394 b 189 -394 206 -360 191 -360 b 169 -360 139 -360 139 -314 b 139 -190 473 249 473 400 b 473 466 438 474 420 474 b 406 520 356 512 356 503 b 356 491 394 498 394 447 b 394 402 367 335 328 259 b 302 222 168 34 102 34 b -97 34 264 567 429 567 b 472 567 458 539 485 539 b 510 539 488 597 459 597 z"},"d":{"x_min":0,"x_max":701,"ha":701,"o":"m 701 330 b 651 249 459 -49 378 -49 b 349 -49 346 -9 346 21 b 346 193 673 655 673 778 b 673 842 630 860 613 860 b 599 905 550 897 550 888 b 550 876 587 884 587 834 b 587 789 535 688 470 571 b 469 583 463 591 448 591 b 403 591 407 622 365 623 b 198 620 -55 299 -55 202 b -55 124 2 106 2 106 b 2 106 12 0 96 0 b 138 0 192 39 237 79 b 236 70 235 61 235 53 b 235 -5 265 -32 302 -44 b 302 -44 301 -96 363 -96 b 479 -96 683 229 734 317 b 749 340 717 354 701 330 z m 100 42 b -94 42 257 561 418 561 b 460 561 444 528 431 500 b 431 500 431 500 431 500 b 382 411 331 318 293 237 b 251 175 154 42 100 42 z m 365 623 b 365 623 366 624 365 623 z"},"1":{"x_min":0,"x_max":373,"ha":373,"o":"m 137 36 b 115 36 85 36 85 82 b 85 206 412 639 412 790 b 412 856 376 864 359 864 b 345 910 295 902 295 893 b 295 881 332 889 332 837 b 332 828 331 817 329 805 b 306 707 180 620 63 608 b -3 601 -1 620 -11 619 b -22 618 -43 563 39 571 b 39 571 61 534 120 540 b 166 544 210 573 249 614 b 141 409 0 207 0 120 b 0 67 36 55 36 55 b 36 55 36 2 99 2 b 135 2 152 36 137 36 z"},"5":{"x_min":0,"x_max":593,"ha":593,"o":"m 654 947 b 644 941 659 928 598 893 b 561 871 519 859 475 855 b 410 848 341 855 277 869 b 266 892 246 896 234 896 b 220 942 170 934 170 925 b 170 913 208 920 208 869 b 208 786 64 619 64 561 b 64 507 100 496 100 496 b 100 496 99 442 162 442 b 199 442 215 476 201 476 b 185 476 165 477 155 492 b 203 524 254 540 292 540 b 347 540 371 503 373 444 b 373 279 217 51 47 51 b 3 51 -21 59 -21 97 b -21 117 -77 138 -77 97 b -77 56 -58 25 -26 25 b 6 25 -4 -5 37 -5 b 234 -5 484 199 484 403 b 484 511 401 509 401 509 b 401 509 433 622 311 622 b 258 622 206 588 153 549 b 175 628 279 746 286 814 b 369 790 454 777 518 783 b 546 786 573 794 595 807 b 649 839 642 880 642 880 b 717 924 663 952 654 947 z"}}}
